<?xml version="1.0" encoding="UTF-8"?>
<svg id="Layer_1" data-name="Layer 1" xmlns="http://www.w3.org/2000/svg" viewBox="0 0 1499.3 2420.3">
  <path d="M1034.8,517.4c0,3.1,0,6.1,0,9.2-15.1-143.2-136.2-254.7-283.3-254.7h-2.5c-151.7,0-275.8,118.7-284.4,268.3-.3,5.5-.5,11-.5,16.6v986.7c0,5.6.2,11.1.5,16.6v317s0,0,0,0c-256.3,0-464.1-207.8-464.1-464.1v-873c-.3-7.5-.5-15-.5-22.6C0,231.7,231.7,0,517.4,0s517.4,231.7,517.4,517.4Z"/>
  <path d="M464.5,1902.9c0-3.1,0-6.1,0-9.2,15.1,143.2,136.2,254.7,283.3,254.7h2.5c151.7,0,275.8-118.7,284.4-268.3.3-5.5.5-11,.5-16.6v-986.7c0-5.6-.2-11.1-.5-16.6v-317h0c256.3,0,464.1,207.8,464.1,464.1v873c.3,7.5.5,15,.5,22.6,0,285.7-231.7,517.4-517.4,517.4s-517.4-231.7-517.4-517.4Z"/>
  <circle cx="749.7" cy="1872.3" r="109.7"/>
</svg>